<svg xmlns="http://www.w3.org/2000/svg" width="101" height="76" viewBox="0 0 101 76" fill="none">
  <path fill-rule="evenodd" clip-rule="evenodd" d="M59.4169 0.112201C70.6588 0.108293 81.9011 0.0740949 93.143 0.121484C99.8262 0.148842 101.711 2.38197 100.27 8.98218C96.0508 28.3119 91.7369 47.622 87.365 66.918C85.9824 73.0169 82.8059 75.5154 76.3899 75.5344C53.9057 75.6013 31.4214 75.6087 8.93774 75.5315C1.58859 75.5056 -0.344576 73.0164 1.23879 66.0518C5.53504 47.1369 9.85424 28.2278 14.2081 9.32612C15.8667 2.12304 18.3593 0.145422 25.6899 0.124415C36.9322 0.0926595 48.1746 0.11611 59.4169 0.112201Z" fill="#E0EAF5"/>
  <path fill-rule="evenodd" clip-rule="evenodd" d="M42.4278 73.2866C31.1845 73.2827 19.9407 73.3345 8.69788 73.2607C2.99658 73.2236 1.9599 71.8782 3.2433 66.302C7.59426 47.3905 12.0854 28.5107 16.3397 9.57775C17.4804 4.49983 19.9412 2.25547 25.3816 2.30579C47.8663 2.5144 70.3549 2.37272 92.841 2.39568C98.4803 2.40105 99.4271 3.60727 98.1613 9.32664C94.0512 27.8947 89.9152 46.4573 85.7064 65.0034C84.1313 71.9441 82.3169 73.2686 75.0146 73.2847C64.1524 73.3077 53.2896 73.2906 42.4278 73.2866Z" fill="#2671BE"/>
  <path fill-rule="evenodd" clip-rule="evenodd" d="M51.995 36.2248C51.2412 35.3405 50.4136 34.3224 49.5371 33.3492C44.5672 27.8287 39.6412 22.2671 34.5828 16.8291C32.2681 14.3405 31.5304 11.9237 34.3102 9.46729C37.0573 7.03924 39.7565 7.2542 42.2764 10.0477C49.2943 17.8248 56.3039 25.6107 63.4381 33.2808C66.1016 36.1456 65.4812 38.0935 62.5475 40.2162C51.2871 48.3665 40.0902 56.6053 28.9055 64.8597C26.3914 66.7157 23.9946 67.1803 21.9638 64.4391C19.7233 61.4155 21.7962 59.6167 24.1202 57.9244C32.4318 51.8704 40.7272 45.7939 48.987 39.6695C50.1375 38.8165 51.7893 38.3192 51.995 36.2248Z" fill="#FDFDFE"/>
  <path fill-rule="evenodd" clip-rule="evenodd" d="M55.555 65.4729C52.528 65.4729 49.4966 65.5769 46.4764 65.4396C44.0669 65.3307 42.6169 63.9843 42.6472 61.4463C42.6765 59.0466 43.8861 57.2424 46.2932 57.1774C52.909 57.0001 59.5346 57.0382 66.1529 57.1676C68.2561 57.2087 69.8087 58.579 69.796 60.7706C69.7809 63.2847 68.4579 65.2325 65.7655 65.3947C62.3731 65.5999 58.9596 65.4455 55.5555 65.4455C55.555 65.4538 55.555 65.4636 55.555 65.4729Z" fill="#FCFDFD"/>
</svg>